<?xml version="1.0" encoding="UTF-8"?><svg id="Layer_1" xmlns="http://www.w3.org/2000/svg" viewBox="0 0 400 400"><defs><style>.cls-1{fill:#04a808;}</style></defs><polygon class="cls-1" points="141.41 47.87 153.79 87.92 163.68 84.87 151.3 44.81 164.37 40.77 161.86 32.65 125.84 43.78 128.35 51.9 141.41 47.87"/><polygon class="cls-1" points="191.47 58.13 209.9 58.23 209.78 80.24 220.07 80.3 220.34 29.87 210.05 29.81 209.94 49.73 191.51 49.63 191.62 29.72 181.34 29.66 181.08 80.09 191.36 80.15 191.47 58.13"/><polygon class="cls-1" points="264.12 84.97 241.11 77.46 245.32 64.55 266.16 71.36 268.8 63.28 247.96 56.47 251.51 45.61 273.23 52.7 275.86 44.62 244.62 34.42 228.96 82.36 260.32 92.6 264.12 84.97"/><path class="cls-1" d="M200,9.2C94.79,9.2,9.2,94.79,9.2,200s85.59,190.8,190.8,190.8,190.8-85.59,190.8-190.8S305.21,9.2,200,9.2Zm0,370.83c-99.43,0-180.03-80.6-180.03-180.03S100.57,19.97,200,19.97s180.03,80.6,180.03,180.03-80.6,180.03-180.03,180.03Z"/><path class="cls-1" d="M69.07,249.21l-8.09,3.13,3.78,9.78-.22,.09c-6.01,2.33-11.72,2.19-14.45-4.87-3.06-7.91,3.02-13.85,11.91-17.29,8.93-3.45,17.83-3.56,20.98,4.59,2.46,6.35-.21,9.72-2.82,11.74l3.62,9.37c7.39-4.18,11.38-12.37,7.07-23.52-5.34-13.81-19.14-17.21-32.59-12.01-13.64,5.27-21.34,15.67-16.6,27.93,2.27,5.87,5.53,10.01,11.14,10.61-1.7,.81-3.76,1.9-5.16,2.81l2.72,7.02c1.5-.58,8.88-3.44,26.15-10.11l-7.45-19.26Z"/><path class="cls-1" d="M114.58,281.05c-10.47-12.15-24.78-8.76-34.15-.69-10.81,9.31-15.52,22.1-5.41,33.84,10.32,11.98,23.69,9.69,34.63,.26,10.23-8.82,14.83-21.9,4.92-33.4Zm-11.79,25.45c-7.95,6.85-15.63,9.31-21.33,2.7-5.19-6.02-1.75-14.26,5.85-20.8,7.32-6.3,15.38-8.67,20.8-2.39,5.84,6.78,1.69,14.45-5.31,20.49Z"/><polygon class="cls-1" points="132.77 300.34 107.59 343.77 134.87 359.58 140.05 352.89 120.65 341.64 141.62 305.47 132.77 300.34"/><polygon class="cls-1" points="155.23 366.38 165.16 367.87 168.21 347.39 188.77 350.46 190 342.22 169.44 339.15 171.32 326.58 193.21 329.84 194.46 321.48 162.64 316.73 155.23 366.38"/><path class="cls-1" d="M239.54,333.35c-7.4-.28-10.1-.7-11.01-4.34-.84-3.38,.8-5.95,5.17-7.04,5.18-1.29,7.61,1,9.11,4.45l9.75-2.43c-2.51-7.69-8.97-12.53-20.66-9.61-9.28,2.32-15.27,9.05-13.02,18.08,1.76,7.04,6.62,10.12,18.69,10.44,7.54,.25,10.67,1.39,11.77,5.82,.86,3.44-.47,6.34-6.02,7.72-5.19,1.3-8.79-.87-10.6-5.12l-9.81,2.45c3,9.5,11.24,13.13,21.87,10.48,12.75-3.18,16.34-11.28,14.35-19.22-1.74-6.98-6.25-11.14-19.59-11.67Z"/><polygon class="cls-1" points="286.24 298.48 281.78 291.29 249.9 311.07 254.36 318.26 265.92 311.09 287.91 346.55 296.67 341.12 274.68 305.66 286.24 298.48"/><path class="cls-1" d="M327.14,271.38c-10.94-7.92-24.73-9.37-33.63,2.93-9.4,12.99-2.79,26.13,7.22,33.37,11.56,8.37,25.09,9.99,34.16-2.55,9.27-12.81,3.95-25.28-7.75-33.75Zm1.4,28.63c-4.66,6.44-13.47,4.99-21.58-.88-7.82-5.66-11.99-12.96-7.13-19.68,5.24-7.24,13.67-4.98,21.16,.44,8.5,6.15,12.67,13.05,7.55,20.12Z"/><path class="cls-1" d="M340.15,250.84l2.03-7.09c3.01-10.48-.04-19.35-10.08-22.23-9.77-2.8-16.71,3.81-19.32,12.89l-5.1,17.77,48.26,13.85,2.83-9.85-18.62-5.35Zm-5.9-8.7l-1.86,6.47-14.07-4.04,1.94-6.77c1.39-4.83,4.34-7.63,9.17-6.24,5.3,1.52,6.32,5.34,4.81,10.58Z"/><path class="cls-1" d="M337.62,209.66l10.73,.93c4.18-48.3-15.96-95.24-53.87-125.56l-6.73,8.42c35.09,28.07,53.73,71.51,49.86,116.22Z"/><path class="cls-1" d="M110.85,94.28l-6.52-8.58c-38.63,29.39-59.91,75.82-56.9,124.21l10.75-.67c-2.78-44.78,16.91-87.76,52.67-114.97Z"/><path class="cls-1" d="M310.03,200c0-60.67-49.36-110.03-110.03-110.03s-110.03,49.36-110.03,110.03,49.36,110.03,110.03,110.03,110.03-49.36,110.03-110.03Zm-110.03-99.25c54.82,0,99.25,44.44,99.25,99.25,0,22.33-7.38,42.95-19.83,59.53-10.57-9.12-34.66-25.47-72.75-26.97l.72-9.4c.01-.08,.12-.29,.19-.43,.14-.28,.31-.62,.38-1.01l4.68-7.02,.13-.26c.11-.32,.16-.65,.18-.97,15.77-5.06,27.22-19.85,27.22-37.28,0-21.59-17.56-39.15-39.15-39.15s-39.15,17.56-39.15,39.15c0,17.72,11.84,32.71,28.02,37.52,.11,.33,.26,.67,.47,.99l4.96,7.4c.27,.27,.29,.48,.29,1.13l.72,9.3c-38.64,1.49-64.65,20.95-74.01,29.2-13.48-16.95-21.56-38.39-21.56-61.73,0-54.82,44.44-99.25,99.25-99.25Zm1.01,103.82c-15.67,0-28.38-12.71-28.38-28.38s12.71-28.38,28.38-28.38,28.38,12.71,28.38,28.38-12.71,28.38-28.38,28.38Z"/></svg>